<svg xmlns="http://www.w3.org/2000/svg" xmlns:xlink="http://www.w3.org/1999/xlink" width="500" zoomAndPan="magnify" viewBox="0 0 375 374.999991" height="500" preserveAspectRatio="xMidYMid meet" version="1.0"><defs><clipPath id="b0b5add551"><path d="M 48.242188 7.230469 L 326.492188 7.230469 L 326.492188 367.980469 L 48.242188 367.980469 Z M 48.242188 7.230469 " clip-rule="nonzero"/></clipPath></defs><g clip-path="url(#b0b5add551)"><path fill="#8c9ddf" d="M 326.761719 339.652344 L 326.761719 35.382812 C 326.761719 27.636719 323.597656 20.59375 318.496094 15.496094 C 313.398438 10.394531 306.359375 7.230469 298.609375 7.230469 L 76.410156 7.230469 C 68.664062 7.230469 61.625 10.394531 56.523438 15.496094 C 51.425781 20.59375 48.257812 27.636719 48.257812 35.382812 L 48.257812 339.652344 C 48.257812 347.402344 51.425781 354.445312 56.523438 359.542969 C 61.625 364.640625 68.664062 367.808594 76.410156 367.808594 L 298.609375 367.808594 C 306.359375 367.808594 313.398438 364.640625 318.496094 359.542969 C 323.597656 354.445312 326.761719 347.402344 326.761719 339.652344 Z M 89.429688 149.253906 L 117.703125 149.253906 C 122.558594 149.253906 126.972656 150.980469 130.164062 153.753906 C 133.363281 156.53125 135.347656 160.367188 135.347656 164.589844 L 135.347656 187.203125 C 135.347656 191.429688 133.363281 195.261719 130.164062 198.039062 C 126.972656 200.816406 122.558594 202.539062 117.703125 202.539062 L 89.429688 202.539062 C 84.566406 202.539062 80.15625 200.8125 76.960938 198.039062 C 73.765625 195.261719 71.78125 191.429688 71.78125 187.203125 L 71.78125 164.589844 C 71.78125 160.367188 73.765625 156.53125 76.960938 153.753906 C 80.15625 150.980469 84.566406 149.253906 89.429688 149.253906 Z M 170.980469 149.253906 L 199.253906 149.253906 C 204.113281 149.253906 208.523438 150.980469 211.71875 153.753906 C 214.914062 156.53125 216.898438 160.367188 216.898438 164.589844 L 216.898438 187.203125 C 216.898438 191.429688 214.914062 195.261719 211.71875 198.039062 C 208.523438 200.8125 204.113281 202.539062 199.253906 202.539062 L 170.980469 202.539062 C 166.121094 202.539062 161.707031 200.8125 158.511719 198.039062 C 155.316406 195.261719 153.335938 191.429688 153.335938 187.203125 L 153.335938 164.589844 C 153.335938 160.367188 155.316406 156.53125 158.511719 153.753906 C 161.707031 150.980469 166.121094 149.253906 170.980469 149.253906 Z M 252.53125 149.253906 L 280.804688 149.253906 C 285.660156 149.253906 290.074219 150.980469 293.269531 153.753906 C 296.46875 156.53125 298.449219 160.367188 298.449219 164.589844 L 298.449219 187.203125 C 298.449219 191.429688 296.46875 195.261719 293.269531 198.039062 C 290.074219 200.8125 285.660156 202.539062 280.804688 202.539062 L 252.53125 202.539062 C 247.671875 202.539062 243.257812 200.816406 240.0625 198.039062 C 236.871094 195.261719 234.882812 191.429688 234.882812 187.203125 L 234.882812 164.589844 C 234.882812 160.367188 236.871094 156.53125 240.0625 153.753906 C 243.257812 150.980469 247.671875 149.253906 252.53125 149.253906 Z M 89.429688 219.304688 L 117.703125 219.304688 C 122.558594 219.304688 126.972656 221.027344 130.164062 223.804688 C 133.363281 226.582031 135.347656 230.417969 135.347656 234.636719 L 135.347656 257.253906 C 135.347656 261.476562 133.363281 265.3125 130.164062 268.089844 C 126.972656 270.863281 122.558594 272.585938 117.703125 272.585938 L 89.429688 272.585938 C 84.566406 272.585938 80.15625 270.863281 76.960938 268.089844 C 73.765625 265.3125 71.78125 261.476562 71.78125 257.253906 L 71.78125 234.636719 C 71.78125 230.417969 73.765625 226.582031 76.960938 223.804688 C 80.15625 221.027344 84.566406 219.304688 89.429688 219.304688 Z M 170.980469 219.304688 L 199.253906 219.304688 C 204.113281 219.304688 208.523438 221.027344 211.71875 223.804688 C 214.914062 226.582031 216.898438 230.417969 216.898438 234.636719 L 216.898438 257.253906 C 216.898438 261.476562 214.914062 265.3125 211.71875 268.089844 C 208.523438 270.863281 204.113281 272.585938 199.253906 272.585938 L 170.980469 272.585938 C 166.121094 272.585938 161.707031 270.863281 158.511719 268.089844 C 155.316406 265.3125 153.335938 261.476562 153.335938 257.253906 L 153.335938 234.636719 C 153.335938 230.417969 155.316406 226.582031 158.511719 223.804688 C 161.707031 221.027344 166.121094 219.304688 170.980469 219.304688 Z M 252.53125 219.304688 L 280.804688 219.304688 C 285.660156 219.304688 290.074219 221.027344 293.269531 223.804688 C 296.46875 226.582031 298.449219 230.417969 298.449219 234.636719 L 298.449219 327.304688 C 298.449219 331.527344 296.46875 335.363281 293.269531 338.136719 C 290.074219 340.914062 285.660156 342.636719 280.804688 342.636719 L 252.53125 342.636719 C 247.671875 342.636719 243.257812 340.914062 240.0625 338.136719 C 236.871094 335.363281 234.882812 331.527344 234.882812 327.304688 L 234.882812 234.636719 C 234.882812 230.417969 236.871094 226.582031 240.0625 223.804688 C 243.257812 221.027344 247.671875 219.304688 252.53125 219.304688 Z M 89.429688 289.355469 L 117.703125 289.355469 C 122.558594 289.355469 126.972656 291.078125 130.164062 293.855469 C 133.363281 296.632812 135.347656 300.46875 135.347656 304.6875 L 135.347656 327.304688 C 135.347656 331.527344 133.363281 335.363281 130.164062 338.136719 C 126.972656 340.914062 122.558594 342.636719 117.703125 342.636719 L 89.429688 342.636719 C 84.566406 342.636719 80.15625 340.914062 76.960938 338.136719 C 73.765625 335.363281 71.78125 331.527344 71.78125 327.304688 L 71.78125 304.6875 C 71.78125 300.46875 73.765625 296.632812 76.960938 293.855469 C 80.15625 291.078125 84.566406 289.355469 89.429688 289.355469 Z M 170.980469 289.355469 L 199.253906 289.355469 C 204.113281 289.355469 208.523438 291.078125 211.71875 293.855469 C 214.914062 296.632812 216.898438 300.46875 216.898438 304.6875 L 216.898438 327.304688 C 216.898438 331.527344 214.914062 335.363281 211.71875 338.136719 C 208.523438 340.914062 204.113281 342.636719 199.253906 342.636719 L 170.980469 342.636719 C 166.121094 342.636719 161.707031 340.914062 158.511719 338.136719 C 155.316406 335.363281 153.335938 331.527344 153.335938 327.304688 L 153.335938 304.6875 C 153.335938 300.46875 155.316406 296.632812 158.511719 293.855469 C 161.707031 291.078125 166.121094 289.355469 170.980469 289.355469 Z M 299.113281 108.679688 C 299.113281 112.191406 297.574219 115.386719 295.09375 117.710938 C 292.617188 120.027344 289.199219 121.46875 285.449219 121.46875 L 89.578125 121.46875 C 85.824219 121.46875 82.410156 120.027344 79.933594 117.710938 C 77.453125 115.386719 75.914062 112.191406 75.914062 108.679688 L 75.914062 52.445312 C 75.914062 48.933594 77.453125 45.738281 79.933594 43.417969 C 82.410156 41.09375 85.824219 39.652344 89.578125 39.652344 L 285.449219 39.652344 C 289.199219 39.652344 292.617188 41.09375 295.09375 43.417969 C 297.574219 45.738281 299.113281 48.933594 299.113281 52.445312 L 299.113281 108.679688 " fill-opacity="1" fill-rule="evenodd"/></g></svg>